<?xml version='1.0' encoding='utf-8'?>
<svg xmlns="http://www.w3.org/2000/svg" viewBox="0 0 640 480">
 <g fill="#f00">
  <path d="m596.43 137.13c-1.2862-10.053-14.62-18.199-29.784-18.199h-325.6v-49.461h63.358c11.93 0 21.599-6.4104 21.599-14.315v-28.606c0-7.9046-9.6703-14.315-21.599-14.315h-190.47c-11.93 0-21.598 6.4104-21.598 14.315v28.606c0 7.9046 9.6702 14.315 21.598 14.315h63.354v49.461h-99.248c-15.164 0-28.496 8.1465-29.786 18.199l-29.574 227.1h607.33l-29.576-227.1zm-23.082 153.65c0.81659 3.3991-2.8651 6.1566-8.2286 6.1566h-22.162c-5.3618 0-10.259-2.7574-10.935-6.1566l-2.8018-14.053c-0.67566-3.3992 3.006-6.153 8.2322-6.153h21.584c5.2226 0 10.122 2.7538 10.935 6.153l3.3764 14.053zm-233.51-125.11c0-10.482 15.503-18.984 34.627-18.984h158c19.122 0 34.627 8.5033 34.627 18.984v35.705c0 10.49-15.505 18.988-34.627 18.988h-158c-19.125 0-34.627-8.4985-34.627-18.988v-35.705zm179.04 131.27h-22.158c-5.3635 0-10.134-2.7574-10.657-6.1566l-2.1588-14.053c-0.5221-3.3991 3.2896-6.153 8.5122-6.153h21.584c5.2226 0 9.9936 2.7538 10.655 6.153l2.7386 14.053c0.65759 3.3992-3.1505 6.1566-8.5159 6.1566zm-207.91-20.208c0.070465-3.3992 4.3609-6.153 9.5835-6.153h21.584c5.2262 0 9.5166 2.7538 9.5835 6.153l0.289 14.053c0.070465 3.3991-4.22 6.1566-9.5835 6.1566h-22.162c-5.3617 0-9.6522-2.7574-9.5817-6.1566l0.2872-14.053zm-0.5961 29.091c0.068665-3.398 4.4856-6.1566 9.8599-6.1566h22.22c5.3798 0 9.7931 2.7574 9.8635 6.1566l0.2855 14.049c0.072205 3.4027-4.3429 6.1602-9.8599 6.1602h-22.798c-5.5135 0-9.9286-2.7574-9.8599-6.1602l0.289-14.049zm-221.24-155.07h204.03v36.323h-204.03v-36.323zm89.653 125.98l-2.1606 14.053c-0.52208 3.3991-5.2894 6.1566-10.653 6.1566h-22.162c-5.3617 0-9.1734-2.7574-8.5122-6.1566l2.7387-14.053c0.6648-3.3992 5.4358-6.153 10.657-6.153h21.584c5.2208 0 9.0307 2.7538 8.5086 6.153zm-45.318 0l-2.8001 14.053c-0.67744 3.3991-5.573 6.1566-10.937 6.1566h-22.162c-5.3617 0-9.047-2.7574-8.2286-6.1566l3.3782-14.053c0.81653-3.3992 5.7158-6.153 10.938-6.153h21.584c5.219 0 8.9042 2.7538 8.2268 6.153zm-11.6 58.182l-2.8001 14.048c-0.67744 3.3991-5.8242 6.1566-11.495 6.1566h-23.434c-5.6742 0-9.607-2.7574-8.7904-6.1566l3.3818-14.048c0.81474-3.4027 5.9633-6.1566 11.491-6.1566h22.858c5.5315 0 9.4679 2.7539 8.7886 6.1566zm-8.2178-8.8829h-22.8c-5.5152 0-9.3234-2.7574-8.5068-6.1601l3.3764-14.049c0.82018-3.398 5.8422-6.1566 11.218-6.1566h22.22c5.3761 0 9.1879 2.7574 8.5068 6.1566l-2.8001 14.049c-0.67744 3.4028-5.6959 6.1601-11.215 6.1601zm54.032 22.931c-0.52208 3.3991-5.5406 6.1566-11.213 6.1566h-23.434c-5.6724 0-9.7316-2.7574-9.0704-6.1566l2.7386-14.048c0.6612-3.4027 5.6833-6.1566 11.213-6.1566h22.858c5.5333 0 9.5889 2.7539 9.0668 6.1566l-2.1588 14.048zm-6.4655-22.931h-22.796c-5.5152 0-9.4498-2.7574-8.7904-6.1601l2.7386-14.049c0.66119-3.398 5.5586-6.1566 10.935-6.1566h22.222c5.378 0 9.3107 2.7574 8.7887 6.1566l-2.1588 14.049c-0.5257 3.4028-5.4177 6.1601-10.938 6.1601zm55.082 22.931c-0.36671 3.3991-5.2623 6.1566-10.933 6.1566h-23.434c-5.6706 0-9.8581-2.7574-9.3505-6.1566l2.0955-14.048c0.50763-3.4027 5.4033-6.1566 10.935-6.1566h22.856c5.5333 0 9.7154 2.7539 9.3504 6.1566l-1.5193 14.048zm3.1434-29.091c-0.36855 3.4028-5.1359 6.1601-10.653 6.1601h-22.8c-5.5153 0-9.5781-2.7574-9.0704-6.1601l2.0955-14.049c0.50766-3.398 5.275-6.1566 10.655-6.1566h22.22c5.3798 0 9.4389 2.7574 9.0704 6.1566l-1.5174 14.049zm3.1433-29.086c-0.36673 3.3991-5.013 6.1566-10.375 6.1566h-22.162c-5.3617 0-9.2963-2.7574-8.7922-6.1566l2.0955-14.053c0.50763-3.3992 5.1522-6.153 10.378-6.153h21.582c5.2226 0 9.159 2.7538 8.7904 6.153l-1.5175 14.053zm82.003 58.177c-0.0849 3.3991-4.7511 6.1566-10.422 6.1566h-23.434c-5.6706 0-10.086-2.7574-9.8599-6.1566l0.9286-14.048c0.22763-3.4027 4.892-6.1566 10.422-6.1566h22.858c5.5333 0 9.943 2.7539 9.8581 6.1566l-0.3505 14.048zm0.7316-29.091c-0.0849 3.4028-4.6265 6.1601-10.144 6.1601h-22.796c-5.517 0-9.8075-2.7574-9.5835-6.1601l0.9286-14.049c0.22763-3.398 4.7691-6.1566 10.147-6.1566h22.218c5.3798 0 9.6666 2.7574 9.5799 6.1566l-0.3505 14.049zm0.728-29.086c-0.081268 3.3991-4.5 6.1566-9.8635 6.1566h-22.158c-5.3635 0-9.5276-2.7574-9.3035-6.1566l0.9303-14.053c0.2258-3.3992 4.6445-6.153 9.8635-6.153h21.586c5.2226 0 9.3866 2.7538 9.2999 6.153l-0.3541 14.053zm37.017 64.334h-23.438c-5.6688 0-10.208-2.7574-10.138-6.1566l0.2854-14.048c0.070465-3.4027 4.612-6.1566 10.142-6.1566h22.858c5.5333 0 10.07 2.7539 10.142 6.1566l0.2891 14.048c0.066864 3.3991-4.4693 6.1566-10.14 6.1566zm13.224-78.387c-0.08493-3.3992 4.0773-6.153 9.3035-6.153h21.584c5.2226 0 9.6395 2.7538 9.8635 6.153l0.9321 14.053c0.224 3.3991-3.94 6.1566-9.3035 6.1566h-22.162c-5.3653 0-9.7822-2.7574-9.8635-6.1566l-0.3541-14.053zm0.7316 29.091c-0.086731-3.398 4.2038-6.1566 9.5799-6.1566h22.22c5.3798 0 9.9196 2.7574 10.144 6.1566l0.9303 14.049c0.2276 3.4027-4.0628 6.1602-9.5798 6.1602h-22.8c-5.5153 0-10.059-2.7574-10.144-6.1602l-0.3505-14.049zm34.941 49.296h-23.434c-5.6706 0-10.339-2.7574-10.425-6.1566l-0.3505-14.048c-0.0849-3.4027 4.3284-6.1566 9.8581-6.1566h22.858c5.5315 0 10.198 2.7539 10.425 6.1566l0.9285 14.048c0.224 3.3991-4.1893 6.1566-9.8599 6.1566zm46.628-78.387c-0.3649-3.3992 3.5714-6.153 8.794-6.153h21.581c5.2226 0 9.8707 2.7538 10.375 6.153l2.0974 14.053c0.50406 3.3991-3.4305 6.1566-8.7923 6.1566h-22.16c-5.3635 0-10.008-2.7574-10.375-6.1566l-1.5193-14.053zm3.1415 29.091c-0.36673-3.398 3.6943-6.1566 9.0705-6.1566h22.22c5.3798 0 10.147 2.7574 10.655 6.1566l2.0955 14.049c0.50766 3.4027-3.5534 6.1602-9.0705 6.1602h-22.796c-5.5171 0-10.288-2.7574-10.653-6.1602l-1.5211-14.049zm39.031 49.296h-23.434c-5.6742 0-10.566-2.7574-10.935-6.1566l-1.5157-14.048c-0.3685-3.4027 3.8172-6.1566 9.3505-6.1566h22.856c5.5333 0 10.425 2.7539 10.931 6.1566l2.0956 14.048c0.50583 3.3991-3.678 6.1566-9.3486 6.1566zm7.618-49.296c-0.52566-3.398 3.4107-6.1566 8.7887-6.1566h68.586c5.3762 0 10.398 2.7574 11.215 6.1566l3.3782 14.049c0.81653 3.4027-2.9916 6.1602-8.5087 6.1602h-70.365c-5.5171 0-10.413-2.7574-10.935-6.1602l-2.1588-14.049zm90.175 49.296h-72.334c-5.6688 0-10.689-2.7574-11.213-6.1566l-2.1605-14.048c-0.5221-3.4027 3.5371-6.1566 9.0686-6.1566h70.551c5.5333 0 10.678 2.7539 11.496 6.1566l3.3782 14.048c0.81653 3.3991-3.1162 6.1566-8.7868 6.1566z"/>
  <path d="m14.424 388.44v66.775h0.027096c-1.3278 10.053 10.776 18.199 27.042 18.199h561.69c16.264 0 28.369-8.1465 27.042-18.199v-66.775h-615.8zm307.91 73.154c-15.034 0-27.222-8.0771-27.222-18.042 0-9.9664 12.188-18.046 27.222-18.046 15.036 0 27.224 8.0806 27.224 18.046 0.001831 9.9652-12.187 18.042-27.224 18.042z"/>
 </g>
 <g font-family="serif" font-size="24" stroke-width="0" text-anchor="middle">
  <text x="868" y="559"/>
  <text x="761" y="530"/>
 </g>
</svg>